# xmcd
#
# Track frame offsets:
#	150
#	3025
#	18735
#	34758
#	48463
#	59895
#	73323
#	93210
#	109445
#	122598
#	147788
#	164613
#	175520
#
# Disc length: 2498 seconds
# Revision: 1
# Processed by: cddbd v1.5.2PL0 Copyright (c) Steve Scherf et al.
# Submitted via: dBpowerAMP V12.0
#
DISCID=b509c00d
DTITLE=The Chesterfield Kings - Drunk on Muddy Water
DYEAR=1990
DGENRE=Blues
TTITLE0=Pick a Bale of Cotton
TTITLE1=Bright Lights Big City
TTITLE2=Forty Days and Forty Nights
TTITLE3=Tell Me Baby
TTITLE4=I Got Ramblin'
TTITLE5=I Can't Be Satisfied
TTITLE6=Little Red Rooster
TTITLE7=Walkin' Blues
TTITLE8=Down in the Bottom
TTITLE9=Rollin' Stone
TTITLE10=I'm in the Mood
TTITLE11=I'm Ready
TTITLE12=I'm Your Hoochie Coochie Man
EXTD=
EXTT0=
EXTT1=
EXTT2=
EXTT3=
EXTT4=
EXTT5=
EXTT6=
EXTT7=
EXTT8=
EXTT9=
EXTT10=
EXTT11=
EXTT12=
PLAYORDER=
